<?xml version="1.0" encoding="utf-8"?>
<!-- Generator: Adobe Illustrator 19.1.1, SVG Export Plug-In . SVG Version: 6.00 Build 0)  -->
<svg version="1.1" id="Layer_1" xmlns="http://www.w3.org/2000/svg" xmlns:xlink="http://www.w3.org/1999/xlink" x="0px" y="0px"
	 viewBox="0 0 235.5 115.7" style="enable-background:new 0 0 235.5 115.7;" xml:space="preserve">
<style type="text/css">
	.st0{fill:#005575;}
	.st1{fill:#E52A1B;}
</style>
<path class="st0" d="M35.9,81.7c-5.3,0-10.2-0.9-14.5-2.7c-4.4-1.8-8.2-4.4-11.3-7.8c-3.2-3.5-5.6-7.7-7.4-12.8S0,47.5,0,41
	c0-6.5,0.9-12.4,2.7-17.4c1.8-5.1,4.3-9.4,7.4-12.9s6.9-6.1,11.3-8C25.8,0.9,30.6,0,35.9,0C41.2,0,46,0.9,50.4,2.7
	c4.4,1.8,8.2,4.4,11.3,7.8c3.1,3.5,5.6,7.7,7.3,12.8c1.7,5.1,2.6,10.8,2.6,17.4S70.8,53,69,58.1c-1.7,5.1-4.1,9.4-7.2,12.9
	c-3.1,3.5-6.9,6.1-11.3,8C46.1,80.8,41.2,81.7,35.9,81.7z M35.9,73c4.1,0,7.8-0.8,11-2.3c3.2-1.5,5.8-3.7,7.9-6.5
	c2.1-2.8,3.7-6.2,4.8-10.1c1.1-4,1.6-8.4,1.6-13.2c0-4.8-0.5-9.2-1.6-13.1c-1.1-4-2.7-7.4-4.8-10.2c-2.1-2.8-4.8-5-7.9-6.5
	C43.6,9.5,40,8.7,35.9,8.7c-4.2,0-7.9,0.8-11.1,2.3c-3.2,1.5-5.8,3.7-8,6.5c-2.1,2.8-3.7,6.2-4.8,10.2c-1.1,4-1.6,8.3-1.6,13.1
	c0,4.9,0.5,9.3,1.6,13.2c1.1,4,2.6,7.3,4.7,10.1c2.1,2.8,4.7,5,7.9,6.5C27.8,72.3,31.6,73,35.9,73z"/>
<path class="st0" d="M78.4,2h27.2c5.7,0,10.7,0.8,15.2,2.3c4.5,1.6,8.2,3.9,11.3,7.1c3.1,3.2,5.5,7.2,7.1,12
	c1.7,4.8,2.5,10.4,2.5,16.9c0,6.5-0.9,12.3-2.7,17.2c-1.8,4.9-4.3,9-7.7,12.3c-3.3,3.3-7.4,5.7-12.2,7.4c-4.8,1.7-10.2,2.5-16.1,2.5
	H78.4V2z M103.6,71.1c9.7,0,16.7-2.7,21.1-8.1c4.4-5.4,6.6-12.9,6.6-22.4c0-4.7-0.5-8.9-1.5-12.6c-1-3.7-2.5-6.8-4.6-9.4
	c-2.1-2.6-4.7-4.5-8-5.9c-3.3-1.3-7.2-2-11.7-2H88.4v60.5H103.6z"/>
<path class="st0" d="M149.3,79.8h-10.5L169.1,2h10.6l30.2,77.8H199l-25-66.5L149.3,79.8z"/>
<g>
	<path class="st0" d="M97,107.7c-0.1,1.1-0.4,2.2-0.9,3.2c-0.4,1-1,1.8-1.8,2.6c-0.8,0.7-1.7,1.3-2.8,1.7c-1.1,0.4-2.4,0.6-3.8,0.6
		c-1.6,0-3-0.3-4.2-0.8c-1.2-0.5-2.3-1.3-3.2-2.3c-0.9-1-1.5-2.3-2-3.7c-0.5-1.5-0.7-3.1-0.7-5c0-1.9,0.3-3.6,0.8-5.1
		c0.5-1.5,1.2-2.7,2.1-3.7c0.9-1,2-1.8,3.2-2.3c1.2-0.5,2.6-0.8,4-0.8c1.4,0,2.6,0.2,3.6,0.5s1.9,0.9,2.6,1.5
		c0.7,0.7,1.3,1.4,1.7,2.3c0.4,0.9,0.8,1.9,1,3l-2.9,0.5c-0.2-0.8-0.4-1.6-0.7-2.2c-0.3-0.7-0.7-1.2-1.2-1.7c-0.5-0.5-1-0.8-1.7-1.1
		c-0.7-0.2-1.5-0.4-2.4-0.4c-1.1,0-2.1,0.2-3,0.7c-0.9,0.5-1.6,1.1-2.2,1.9c-0.6,0.8-1.1,1.8-1.4,2.9c-0.3,1.2-0.5,2.4-0.5,3.8
		c0,1.4,0.2,2.7,0.5,3.8c0.3,1.2,0.8,2.1,1.4,3c0.6,0.8,1.3,1.5,2.2,1.9c0.9,0.4,1.9,0.7,3,0.7c1,0,1.9-0.1,2.6-0.4
		c0.7-0.3,1.3-0.6,1.8-1.1c0.5-0.5,0.9-1.1,1.1-1.7c0.3-0.7,0.5-1.4,0.6-2.2H97z"/>
	<path class="st0" d="M112.2,115.7c-1.5,0-3-0.3-4.2-0.8s-2.4-1.3-3.3-2.3c-0.9-1-1.6-2.2-2.1-3.7c-0.5-1.5-0.8-3.2-0.8-5.1
		c0-1.9,0.3-3.6,0.8-5.1c0.5-1.5,1.2-2.7,2.2-3.7c0.9-1,2-1.8,3.3-2.3c1.3-0.5,2.7-0.8,4.2-0.8c1.5,0,3,0.3,4.2,0.8
		c1.3,0.5,2.4,1.3,3.3,2.3c0.9,1,1.6,2.2,2.1,3.7c0.5,1.5,0.8,3.2,0.8,5.1c0,1.9-0.2,3.6-0.7,5.1c-0.5,1.5-1.2,2.7-2.1,3.8
		c-0.9,1-2,1.8-3.3,2.3C115.1,115.4,113.7,115.7,112.2,115.7z M112.2,113.1c1.2,0,2.3-0.2,3.2-0.7c0.9-0.4,1.7-1.1,2.3-1.9
		c0.6-0.8,1.1-1.8,1.4-2.9c0.3-1.2,0.5-2.4,0.5-3.9c0-1.4-0.2-2.7-0.5-3.8c-0.3-1.2-0.8-2.1-1.4-3c-0.6-0.8-1.4-1.5-2.3-1.9
		c-0.9-0.4-2-0.7-3.2-0.7c-1.2,0-2.3,0.2-3.2,0.7c-0.9,0.4-1.7,1.1-2.3,1.9c-0.6,0.8-1.1,1.8-1.4,3c-0.3,1.2-0.5,2.4-0.5,3.8
		c0,1.4,0.2,2.7,0.5,3.9c0.3,1.2,0.8,2.1,1.4,2.9c0.6,0.8,1.4,1.4,2.3,1.9C109.8,112.9,110.9,113.1,112.2,113.1z"/>
	<path class="st0" d="M128.3,92.5h2.9l11.5,18v-18h2.8v22.6h-2.8l-11.6-17.9v17.9h-2.8V92.5z"/>
	<path class="st0" d="M152.1,92.5h2.9l11.5,18v-18h2.8v22.6h-2.8L155,97.2v17.9h-2.8V92.5z"/>
	<path class="st0" d="M175.9,92.5h14.6v2.6h-11.7v7.1H190v2.6h-11.1v7.8h12.3l-0.5,2.6h-14.8V92.5z"/>
	<path class="st0" d="M214.9,107.7c-0.1,1.1-0.4,2.2-0.9,3.2c-0.4,1-1,1.8-1.8,2.6c-0.8,0.7-1.7,1.3-2.8,1.7
		c-1.1,0.4-2.4,0.6-3.8,0.6c-1.6,0-3-0.3-4.2-0.8c-1.2-0.5-2.3-1.3-3.2-2.3c-0.9-1-1.5-2.3-2-3.7c-0.5-1.5-0.7-3.1-0.7-5
		c0-1.9,0.3-3.6,0.8-5.1c0.5-1.5,1.2-2.7,2.1-3.7c0.9-1,2-1.8,3.2-2.3c1.2-0.5,2.6-0.8,4-0.8c1.4,0,2.6,0.2,3.6,0.5s1.9,0.9,2.6,1.5
		c0.7,0.7,1.3,1.4,1.7,2.3c0.4,0.9,0.8,1.9,1,3l-2.9,0.5c-0.2-0.8-0.4-1.6-0.7-2.2c-0.3-0.7-0.7-1.2-1.2-1.7c-0.5-0.5-1-0.8-1.7-1.1
		c-0.7-0.2-1.5-0.4-2.4-0.4c-1.1,0-2.1,0.2-3,0.7c-0.9,0.5-1.6,1.1-2.2,1.9c-0.6,0.8-1.1,1.8-1.4,2.9c-0.3,1.2-0.5,2.4-0.5,3.8
		c0,1.4,0.2,2.7,0.5,3.8c0.3,1.2,0.8,2.1,1.4,3c0.6,0.8,1.3,1.5,2.2,1.9c0.9,0.4,1.9,0.7,3,0.7c1,0,1.9-0.1,2.6-0.4
		c0.7-0.3,1.3-0.6,1.8-1.1c0.5-0.5,0.9-1.1,1.1-1.7c0.3-0.7,0.5-1.4,0.6-2.2H214.9z"/>
	<path class="st0" d="M225,95.1h-7.5v-2.6h17.9v2.6H228v20H225V95.1z"/>
</g>
<polygon class="st1" points="235.4,58 211.8,58 208.4,49.3 235.4,49.3 "/>
</svg>
